<svg width="201.371240234375px" height="53.6px" xmlns="http://www.w3.org/2000/svg" viewBox="149.3143798828125 48.2 201.371240234375 53.6" style="background: rgb(25, 135, 84);" preserveAspectRatio="xMidYMid"><defs><linearGradient id="editing-glowing-gradient" x1="0" x2="1" y1="0.5" y2="0.5"><stop offset="0" stop-color="#67ff43"></stop><stop offset="1" stop-color="#38ff7e"></stop></linearGradient><filter id="editing-glowing" x="-100%" y="-100%" width="300%" height="300%"><feGaussianBlur in="SourceGraphic" result="blur" stdDeviation="1"></feGaussianBlur><feMerge><feMergeNode in="blur"></feMergeNode><feMergeNode in="SourceGraphic"></feMergeNode></feMerge></filter></defs><g filter="url(#editing-glowing)"><g transform="translate(183.06919193267822, 82.23000192642212)"><path d="M1.04 0L1.04 0L1.04 0Q1.10-0.24 1.15-0.59L1.15-0.59L1.15-0.59Q1.19-0.94 1.19-1.31L1.19-1.31L1.19-1.31Q1.19-1.65 1.14-1.98L1.14-1.98L1.14-1.98Q1.09-2.30 1.04-2.54L1.04-2.54L1.04-2.54Q1.69-2.54 2.08-2.69L2.08-2.69L2.08-2.69Q2.46-2.84 2.67-3.20L2.67-3.20L2.67-3.20Q2.87-3.55 2.93-4.15L2.93-4.15L2.93-4.15Q3.00-4.75 3.00-5.63L3.00-5.63L3.00-5.63Q3.00-6.30 2.83-6.71L2.83-6.71L2.83-6.71Q2.67-7.13 2.44-7.18L2.44-7.18L2.44-7.18Q2.64-7.24 2.78-7.49L2.78-7.49L2.78-7.49Q2.93-7.74 3.02-8.15L3.02-8.15L3.02-8.15Q3.12-8.55 3.16-9.09L3.16-9.09L3.16-9.09Q3.21-9.63 3.21-10.26L3.21-10.26L3.21-10.26Q3.21-10.65 3.09-10.90L3.09-10.90L3.09-10.90Q2.96-11.14 2.74-11.28L2.74-11.28L2.74-11.28Q2.53-11.43 2.24-11.47L2.24-11.47L2.24-11.47Q1.95-11.52 1.62-11.52L1.62-11.52L1.44-11.52L1.44-11.52Q1.48-11.76 1.53-12.07L1.53-12.07L1.53-12.07Q1.58-12.37 1.58-12.71L1.58-12.71L1.58-12.71Q1.58-13.08 1.54-13.45L1.54-13.45L1.54-13.45Q1.49-13.82 1.44-14.06L1.44-14.06L1.44-14.06Q1.61-13.99 1.97-13.94L1.97-13.94L1.97-13.94Q2.32-13.88 2.79-13.83L2.79-13.83L2.79-13.83Q3.25-13.78 3.77-13.75L3.77-13.75L3.77-13.75Q4.29-13.72 4.79-13.72L4.79-13.72L4.79-13.72Q5.35-13.72 5.85-13.75L5.85-13.75L5.85-13.75Q6.36-13.78 6.78-13.83L6.78-13.83L6.78-13.83Q7.20-13.88 7.51-13.94L7.51-13.94L7.51-13.94Q7.83-13.99 8.03-14.06L8.03-14.06L8.03-14.06Q8.04-13.76 8.18-13.26L8.18-13.26L8.18-13.26Q8.33-12.75 8.56-12.15L8.56-12.15L8.56-12.15Q8.80-11.54 9.10-10.88L9.10-10.88L9.10-10.88Q9.39-10.21 9.70-9.60L9.70-9.60L9.70-9.60Q10.01-8.98 10.31-8.46L10.31-8.46L10.31-8.46Q10.61-7.93 10.84-7.60L10.84-7.60L10.84-7.60Q11.07-7.93 11.37-8.46L11.37-8.46L11.37-8.46Q11.67-8.98 11.98-9.60L11.98-9.60L11.98-9.60Q12.29-10.21 12.58-10.88L12.58-10.88L12.58-10.88Q12.88-11.54 13.12-12.15L13.12-12.15L13.12-12.15Q13.35-12.75 13.50-13.26L13.50-13.26L13.50-13.26Q13.64-13.76 13.65-14.06L13.65-14.06L13.65-14.06Q13.84-13.99 14.16-13.93L14.16-13.93L14.16-13.93Q14.48-13.87 14.90-13.82L14.90-13.82L14.90-13.82Q15.32-13.78 15.83-13.75L15.83-13.75L15.83-13.75Q16.34-13.72 16.89-13.72L16.89-13.72L16.89-13.72Q17.39-13.72 17.91-13.75L17.91-13.75L17.91-13.75Q18.43-13.78 18.89-13.83L18.89-13.83L18.89-13.83Q19.36-13.88 19.71-13.94L19.71-13.94L19.71-13.94Q20.07-13.99 20.24-14.06L20.24-14.06L20.24-14.06Q20.19-13.82 20.14-13.45L20.14-13.45L20.14-13.45Q20.10-13.08 20.10-12.71L20.10-12.71L20.10-12.71Q20.10-12.37 20.15-12.07L20.15-12.07L20.15-12.07Q20.20-11.76 20.24-11.52L20.24-11.52L20.06-11.52L20.06-11.52Q19.73-11.52 19.44-11.47L19.44-11.47L19.44-11.47Q19.15-11.43 18.94-11.28L18.94-11.28L18.94-11.28Q18.72-11.14 18.59-10.90L18.59-10.90L18.59-10.90Q18.47-10.65 18.47-10.26L18.47-10.26L18.47-10.26Q18.47-9.63 18.51-9.09L18.51-9.09L18.51-9.09Q18.55-8.55 18.65-8.15L18.65-8.15L18.65-8.15Q18.75-7.74 18.90-7.49L18.90-7.49L18.90-7.49Q19.04-7.24 19.24-7.18L19.24-7.18L19.24-7.18Q19.01-7.13 18.85-6.71L18.85-6.71L18.85-6.71Q18.68-6.30 18.68-5.63L18.68-5.63L18.68-5.63Q18.68-5.15 18.78-4.76L18.78-4.76L18.78-4.76Q18.89-4.37 18.96-3.97L18.96-3.97L18.96-3.97Q19.02-3.56 19.15-3.29L19.15-3.29L19.15-3.29Q19.28-3.02 19.50-2.85L19.50-2.85L19.50-2.85Q19.72-2.69 20.04-2.61L20.04-2.61L20.04-2.61Q20.37-2.54 20.83-2.54L20.83-2.54L20.83-2.54Q20.78-2.30 20.73-1.98L20.73-1.98L20.73-1.98Q20.68-1.65 20.68-1.31L20.68-1.31L20.68-1.31Q20.68-0.94 20.73-0.59L20.73-0.59L20.73-0.59Q20.77-0.24 20.83 0L20.83 0L20.83 0Q20.55-0.06 20.12-0.10L20.12-0.10L20.12-0.10Q19.69-0.15 19.18-0.18L19.18-0.18L19.18-0.18Q18.67-0.21 18.13-0.23L18.13-0.23L18.13-0.23Q17.59-0.24 17.09-0.24L17.09-0.24L17.09-0.24Q16.59-0.24 16.05-0.23L16.05-0.23L16.05-0.23Q15.51-0.21 15-0.18L15-0.18L15-0.18Q14.49-0.15 14.06-0.10L14.06-0.10L14.06-0.10Q13.63-0.06 13.36 0L13.36 0L13.36 0Q13.42-0.24 13.46-0.59L13.46-0.59L13.46-0.59Q13.51-0.94 13.51-1.31L13.51-1.31L13.51-1.31Q13.51-1.65 13.46-1.98L13.46-1.98L13.46-1.98Q13.41-2.30 13.36-2.54L13.36-2.54L13.36-2.54Q14.34-2.54 14.79-2.88L14.79-2.88L14.79-2.88Q15.23-3.21 15.23-4.05L15.23-4.05L15.23-4.05Q15.23-4.73 15.20-5.46L15.20-5.46L15.20-5.46Q15.17-6.19 15.10-6.86L15.10-6.86L15.10-6.86Q15.04-7.53 14.95-8.08L14.95-8.08L14.95-8.08Q14.85-8.63 14.74-8.95L14.74-8.95L14.74-8.95Q14.52-8.95 14.25-8.63L14.25-8.63L14.25-8.63Q13.98-8.32 13.70-7.83L13.70-7.83L13.70-7.83Q13.41-7.34 13.13-6.76L13.13-6.76L13.13-6.76Q12.86-6.17 12.65-5.62L12.65-5.62L12.65-5.62Q12.43-5.06 12.29-4.61L12.29-4.61L12.29-4.61Q12.16-4.16 12.15-3.96L12.15-3.96L12.15-3.96Q11.88-4.04 11.53-4.07L11.53-4.07L11.53-4.07Q11.19-4.10 10.84-4.10L10.84-4.10L10.84-4.10Q10.49-4.10 10.15-4.07L10.15-4.07L10.15-4.07Q9.80-4.04 9.53-3.96L9.53-3.96L9.53-3.96Q9.52-4.15 9.38-4.59L9.38-4.59L9.38-4.59Q9.25-5.03 9.03-5.57L9.03-5.57L9.03-5.57Q8.82-6.11 8.55-6.69L8.55-6.69L8.55-6.69Q8.28-7.27 8.00-7.74L8.00-7.74L8.00-7.74Q7.71-8.21 7.44-8.53L7.44-8.53L7.44-8.53Q7.17-8.84 6.95-8.85L6.95-8.85L6.95-8.85Q6.86-8.54 6.79-7.99L6.79-7.99L6.79-7.99Q6.73-7.44 6.69-6.78L6.69-6.78L6.69-6.78Q6.66-6.11 6.65-5.39L6.65-5.39L6.65-5.39Q6.64-4.66 6.64-3.97L6.64-3.97L6.64-3.97Q6.64-3.55 6.75-3.28L6.75-3.28L6.75-3.28Q6.87-3.00 7.09-2.84L7.09-2.84L7.09-2.84Q7.32-2.68 7.68-2.61L7.68-2.61L7.68-2.61Q8.03-2.54 8.52-2.54L8.52-2.54L8.52-2.54Q8.47-2.30 8.42-1.98L8.42-1.98L8.42-1.98Q8.37-1.65 8.37-1.31L8.37-1.31L8.37-1.31Q8.37-0.94 8.41-0.59L8.41-0.59L8.41-0.59Q8.46-0.24 8.52 0L8.52 0L8.52 0Q8.23-0.06 7.80-0.10L7.80-0.10L7.80-0.10Q7.37-0.15 6.87-0.18L6.87-0.18L6.87-0.18Q6.36-0.21 5.82-0.23L5.82-0.23L5.82-0.23Q5.28-0.24 4.79-0.24L4.79-0.24L4.79-0.24Q4.29-0.24 3.75-0.23L3.75-0.23L3.75-0.23Q3.20-0.21 2.70-0.18L2.70-0.18L2.70-0.18Q2.19-0.15 1.75-0.10L1.75-0.10L1.75-0.10Q1.32-0.06 1.04 0ZM22.66 0L22.66 0L22.66 0Q22.71-0.24 22.76-0.59L22.76-0.59L22.76-0.59Q22.80-0.94 22.80-1.31L22.80-1.31L22.80-1.31Q22.80-1.65 22.75-1.98L22.75-1.98L22.75-1.98Q22.71-2.30 22.66-2.54L22.66-2.54L22.66-2.54Q23.10-2.54 23.43-2.61L23.43-2.61L23.43-2.61Q23.76-2.68 23.98-2.84L23.98-2.84L23.98-2.84Q24.21-3.00 24.32-3.28L24.32-3.28L24.32-3.28Q24.43-3.55 24.43-3.97L24.43-3.97L24.43-3.97Q24.43-4.79 24.39-5.38L24.39-5.38L24.39-5.38Q24.35-5.97 24.26-6.35L24.26-6.35L24.26-6.35Q24.18-6.73 24.05-6.93L24.05-6.93L24.05-6.93Q23.93-7.13 23.76-7.18L23.76-7.18L23.76-7.18Q23.94-7.24 24.06-7.36L24.06-7.36L24.06-7.36Q24.19-7.49 24.27-7.80L24.27-7.80L24.27-7.80Q24.36-8.11 24.39-8.65L24.39-8.65L24.39-8.65Q24.43-9.19 24.43-10.09L24.43-10.09L24.43-10.09Q24.43-10.51 24.32-10.79L24.32-10.79L24.32-10.79Q24.21-11.06 23.98-11.23L23.98-11.23L23.98-11.23Q23.76-11.39 23.43-11.46L23.43-11.46L23.43-11.46Q23.10-11.52 22.66-11.52L22.66-11.52L22.66-11.52Q22.71-11.76 22.75-12.08L22.75-12.08L22.75-12.08Q22.80-12.41 22.80-12.75L22.80-12.75L22.80-12.75Q22.80-13.13 22.76-13.47L22.76-13.47L22.76-13.47Q22.71-13.82 22.66-14.06L22.66-14.06L22.66-14.06Q22.85-14.01 23.33-13.97L23.33-13.97L23.33-13.97Q23.81-13.93 24.44-13.89L24.44-13.89L24.44-13.89Q25.08-13.85 25.80-13.82L25.80-13.82L25.80-13.82Q26.52-13.79 27.21-13.76L27.21-13.76L27.21-13.76Q27.90-13.74 28.48-13.73L28.48-13.73L28.48-13.73Q29.06-13.72 29.41-13.72L29.41-13.72L29.41-13.72Q29.77-13.72 30.31-13.73L30.31-13.73L30.31-13.73Q30.86-13.74 31.49-13.76L31.49-13.76L31.49-13.76Q32.12-13.79 32.78-13.82L32.78-13.82L32.78-13.82Q33.44-13.85 34.02-13.89L34.02-13.89L34.02-13.89Q34.60-13.93 35.04-13.97L35.04-13.97L35.04-13.97Q35.49-14.01 35.68-14.06L35.68-14.06L35.68-14.06Q35.61-13.65 35.52-13.02L35.52-13.02L35.52-13.02Q35.44-12.39 35.44-11.69L35.44-11.69L35.44-11.69Q35.44-11.28 35.47-10.88L35.47-10.88L35.47-10.88Q35.50-10.49 35.53-10.16L35.53-10.16L35.53-10.16Q35.57-9.83 35.61-9.59L35.61-9.59L35.61-9.59Q35.65-9.35 35.68-9.23L35.68-9.23L35.68-9.23Q35.54-9.29 35.32-9.33L35.32-9.33L35.32-9.33Q35.10-9.38 34.84-9.41L34.84-9.41L34.84-9.41Q34.59-9.44 34.32-9.46L34.32-9.46L34.32-9.46Q34.04-9.47 33.79-9.47L33.79-9.47L33.79-9.47Q33.34-9.47 32.89-9.42L32.89-9.42L32.89-9.42Q32.44-9.37 32.03-9.23L32.03-9.23L32.03-9.23Q32.10-9.43 32.14-9.73L32.14-9.73L32.14-9.73Q32.19-10.02 32.19-10.32L32.19-10.32L32.19-10.32Q32.19-10.82 32.02-11.12L32.02-11.12L32.02-11.12Q31.85-11.42 31.58-11.57L31.58-11.57L31.58-11.57Q31.32-11.73 31.01-11.77L31.01-11.77L31.01-11.77Q30.69-11.82 30.41-11.82L30.41-11.82L30.41-11.82Q30.19-11.82 29.94-11.80L29.94-11.80L29.94-11.80Q29.69-11.79 29.43-11.73L29.43-11.73L29.43-11.73Q29.17-11.68 28.92-11.59L28.92-11.59L28.92-11.59Q28.66-11.49 28.45-11.34L28.45-11.34L28.45-11.34Q28.41-11.11 28.38-10.82L28.38-10.82L28.38-10.82Q28.35-10.53 28.35-10.09L28.35-10.09L28.35-10.09Q28.35-9.43 28.37-9.07L28.37-9.07L28.37-9.07Q28.40-8.70 28.44-8.51L28.44-8.51L28.44-8.51Q28.70-8.39 29.05-8.34L29.05-8.34L29.05-8.34Q29.40-8.29 29.78-8.29L29.78-8.29L29.78-8.29Q30.33-8.29 30.83-8.38L30.83-8.38L30.83-8.38Q31.33-8.47 31.55-8.58L31.55-8.58L31.55-8.58Q31.47-8.37 31.44-7.99L31.44-7.99L31.44-7.99Q31.41-7.61 31.41-7.19L31.41-7.19L31.41-7.19Q31.41-6.95 31.42-6.72L31.42-6.72L31.42-6.72Q31.43-6.49 31.45-6.30L31.45-6.30L31.45-6.30Q31.47-6.11 31.50-5.97L31.50-5.97L31.50-5.97Q31.52-5.83 31.55-5.76L31.55-5.76L31.55-5.76Q31.46-5.81 31.27-5.86L31.27-5.86L31.27-5.86Q31.07-5.92 30.82-5.97L30.82-5.97L30.82-5.97Q30.56-6.02 30.25-6.05L30.25-6.05L30.25-6.05Q29.94-6.08 29.62-6.08L29.62-6.08L29.62-6.08Q29.29-6.08 28.98-6.04L28.98-6.04L28.98-6.04Q28.68-6.01 28.44-5.90L28.44-5.90L28.44-5.90Q28.42-5.78 28.40-5.63L28.40-5.63L28.40-5.63Q28.39-5.48 28.37-5.25L28.37-5.25L28.37-5.25Q28.36-5.02 28.35-4.71L28.35-4.71L28.35-4.71Q28.35-4.39 28.35-3.97L28.35-3.97L28.35-3.97Q28.35-3.45 28.39-3.12L28.39-3.12L28.39-3.12Q28.43-2.79 28.48-2.56L28.48-2.56L28.48-2.56Q28.71-2.43 28.97-2.35L28.97-2.35L28.97-2.35Q29.24-2.27 29.51-2.22L29.51-2.22L29.51-2.22Q29.78-2.18 30.03-2.16L30.03-2.16L30.03-2.16Q30.28-2.15 30.51-2.15L30.51-2.15L30.51-2.15Q30.79-2.15 31.09-2.22L31.09-2.22L31.09-2.22Q31.39-2.29 31.63-2.50L31.63-2.50L31.63-2.50Q31.88-2.70 32.03-3.05L32.03-3.05L32.03-3.05Q32.19-3.41 32.19-3.96L32.19-3.96L32.19-3.96Q32.19-4.32 32.14-4.66L32.14-4.66L32.14-4.66Q32.10-5 32.03-5.22L32.03-5.22L32.03-5.22Q32.44-5.09 32.89-5.03L32.89-5.03L32.89-5.03Q33.34-4.98 33.79-4.98L33.79-4.98L33.79-4.98Q34.04-4.98 34.32-5.00L34.32-5.00L34.32-5.00Q34.59-5.01 34.84-5.04L34.84-5.04L34.84-5.04Q35.10-5.08 35.32-5.12L35.32-5.12L35.32-5.12Q35.54-5.17 35.68-5.22L35.68-5.22L35.68-5.22Q35.65-5.10 35.61-4.83L35.61-4.83L35.61-4.83Q35.57-4.57 35.53-4.21L35.53-4.21L35.53-4.21Q35.50-3.86 35.47-3.43L35.47-3.43L35.47-3.43Q35.44-3.01 35.44-2.57L35.44-2.57L35.44-2.57Q35.44-2.19 35.46-1.82L35.46-1.82L35.46-1.82Q35.49-1.46 35.52-1.12L35.52-1.12L35.52-1.12Q35.56-0.79 35.60-0.50L35.60-0.50L35.60-0.50Q35.64-0.21 35.68 0L35.68 0L35.68 0Q35.49-0.04 35.04-0.07L35.04-0.07L35.04-0.07Q34.60-0.11 34.02-0.13L34.02-0.13L34.02-0.13Q33.44-0.16 32.78-0.18L32.78-0.18L32.78-0.18Q32.12-0.21 31.49-0.22L31.49-0.22L31.49-0.22Q30.86-0.23 30.31-0.24L30.31-0.24L30.31-0.24Q29.77-0.24 29.41-0.24L29.41-0.24L29.41-0.24Q29.06-0.24 28.48-0.24L28.48-0.24L28.48-0.24Q27.90-0.23 27.21-0.22L27.21-0.22L27.21-0.22Q26.52-0.21 25.80-0.18L25.80-0.18L25.80-0.18Q25.08-0.16 24.44-0.13L24.44-0.13L24.44-0.13Q23.81-0.11 23.33-0.07L23.33-0.07L23.33-0.07Q22.85-0.04 22.66 0ZM37.69-2.62L37.69-2.62L37.69-2.62Q37.87-2.87 38.03-3.66L38.03-3.66L38.03-3.66Q38.18-4.44 38.18-5.80L38.18-5.80L38.18-5.80Q38.18-6.42 38.02-6.74L38.02-6.74L38.02-6.74Q37.85-7.07 37.54-7.18L37.54-7.18L37.54-7.18Q37.71-7.23 37.84-7.40L37.84-7.40L37.84-7.40Q37.97-7.58 38.06-7.83L38.06-7.83L38.06-7.83Q38.14-8.09 38.18-8.39L38.18-8.39L38.18-8.39Q38.22-8.70 38.22-9.02L38.22-9.02L38.22-9.02Q38.22-9.86 38.08-10.51L38.08-10.51L38.08-10.51Q37.94-11.16 37.69-11.45L37.69-11.45L37.76-11.45L37.76-11.45Q38.09-11.45 38.49-11.59L38.49-11.59L38.49-11.59Q38.89-11.74 39.30-11.98L39.30-11.98L39.30-11.98Q39.71-12.22 40.09-12.51L40.09-12.51L40.09-12.51Q40.48-12.81 40.79-13.13L40.79-13.13L40.79-13.13Q41.09-13.44 41.29-13.74L41.29-13.74L41.29-13.74Q41.48-14.03 41.50-14.26L41.50-14.26L41.50-14.26Q41.83-14.08 42.63-13.90L42.63-13.90L42.63-13.90Q43.44-13.72 44.76-13.72L44.76-13.72L44.76-13.72Q45.07-13.72 45.42-13.76L45.42-13.76L45.42-13.76Q45.78-13.80 46.12-13.87L46.12-13.87L46.12-13.87Q46.46-13.95 46.75-14.04L46.75-14.04L46.75-14.04Q47.04-14.14 47.23-14.26L47.23-14.26L47.23-14.26Q47.32-13.96 47.52-13.64L47.52-13.64L47.52-13.64Q47.71-13.32 48.00-13.10L48.00-13.10L48.00-13.10Q48.27-13.31 48.39-13.58L48.39-13.58L48.39-13.58Q48.52-13.86 48.56-14.06L48.56-14.06L48.56-14.06Q48.65-14.01 48.84-13.98L48.84-13.98L48.84-13.98Q49.02-13.95 49.27-13.92L49.27-13.92L49.27-13.92Q49.51-13.90 49.79-13.88L49.79-13.88L49.79-13.88Q50.08-13.87 50.37-13.87L50.37-13.87L50.37-13.87Q50.55-13.87 50.78-13.88L50.78-13.88L50.78-13.88Q51.02-13.90 51.25-13.92L51.25-13.92L51.25-13.92Q51.49-13.95 51.72-13.98L51.72-13.98L51.72-13.98Q51.94-14.01 52.11-14.06L52.11-14.06L52.11-14.06Q52.09-13.98 52.05-13.76L52.05-13.76L52.05-13.76Q52.00-13.54 51.96-13.24L51.96-13.24L51.96-13.24Q51.92-12.95 51.89-12.62L51.89-12.62L51.89-12.62Q51.87-12.29 51.87-11.98L51.87-11.98L51.87-11.98Q51.87-11.36 51.89-10.80L51.89-10.80L51.89-10.80Q51.92-10.24 51.96-9.79L51.96-9.79L51.96-9.79Q51.99-9.35 52.04-9.02L52.04-9.02L52.04-9.02Q52.08-8.70 52.11-8.54L52.11-8.54L52.11-8.54Q51.88-8.58 51.61-8.61L51.61-8.61L51.61-8.61Q51.34-8.63 51.06-8.65L51.06-8.65L51.06-8.65Q50.78-8.67 50.52-8.68L50.52-8.68L50.52-8.68Q50.25-8.69 50.05-8.69L50.05-8.69L50.05-8.69Q48.86-8.69 47.91-8.54L47.91-8.54L47.91-8.54Q47.91-9.21 47.73-9.80L47.73-9.80L47.73-9.80Q47.56-10.40 47.23-10.84L47.23-10.84L47.23-10.84Q46.89-11.29 46.41-11.55L46.41-11.55L46.41-11.55Q45.92-11.82 45.29-11.82L45.29-11.82L45.29-11.82Q44.95-11.82 44.61-11.76L44.61-11.76L44.61-11.76Q44.27-11.70 43.95-11.52L43.95-11.52L43.95-11.52Q43.63-11.34 43.36-11.01L43.36-11.01L43.36-11.01Q43.10-10.67 42.90-10.12L42.90-10.12L42.90-10.12Q42.70-9.57 42.58-8.77L42.58-8.77L42.58-8.77Q42.47-7.97 42.47-6.86L42.47-6.86L42.47-6.86Q42.47-5.44 42.69-4.53L42.69-4.53L42.69-4.53Q42.91-3.61 43.29-3.09L43.29-3.09L43.29-3.09Q43.67-2.56 44.18-2.35L44.18-2.35L44.18-2.35Q44.70-2.15 45.29-2.15L45.29-2.15L45.29-2.15Q45.89-2.15 46.34-2.40L46.34-2.40L46.34-2.40Q46.80-2.65 47.10-3.09L47.10-3.09L47.10-3.09Q47.41-3.53 47.57-4.13L47.57-4.13L47.57-4.13Q47.72-4.74 47.72-5.46L47.72-5.46L47.72-5.46Q47.72-5.55 47.72-5.63L47.72-5.63L47.72-5.63Q47.71-5.72 47.71-5.81L47.71-5.81L47.71-5.81Q48.05-5.74 48.32-5.69L48.32-5.69L48.32-5.69Q48.59-5.64 48.86-5.62L48.86-5.62L48.86-5.62Q49.12-5.59 49.41-5.58L49.41-5.58L49.41-5.58Q49.70-5.57 50.06-5.57L50.06-5.57L50.06-5.57Q50.68-5.57 51.22-5.63L51.22-5.63L51.22-5.63Q51.76-5.70 52.11-5.81L52.11-5.81L52.11-5.81Q52.05-5.69 52.01-5.46L52.01-5.46L52.01-5.46Q51.96-5.22 51.93-4.92L51.93-4.92L51.93-4.92Q51.89-4.62 51.88-4.28L51.88-4.28L51.88-4.28Q51.87-3.95 51.87-3.62L51.87-3.62L51.87-3.62Q51.87-3.23 51.94-2.80L51.94-2.80L51.94-2.80Q52.01-2.37 52.11-1.98L52.11-1.98L52.11-1.98Q51.25-1.97 50.60-1.71L50.60-1.71L50.60-1.71Q49.94-1.46 49.49-1.11L49.49-1.11L49.49-1.11Q49.03-0.76 48.77-0.42L48.77-0.42L48.77-0.42Q48.52-0.08 48.45 0.10L48.45 0.10L48.45 0.10Q48.24 0.02 47.97-0.04L47.97-0.04L47.97-0.04Q47.70-0.11 47.33-0.15L47.33-0.15L47.33-0.15Q46.96-0.20 46.48-0.22L46.48-0.22L46.48-0.22Q46.01-0.24 45.39-0.24L45.39-0.24L45.39-0.24Q44.74-0.24 44.10-0.21L44.10-0.21L44.10-0.21Q43.46-0.18 42.92-0.11L42.92-0.11L42.92-0.11Q42.38-0.05 41.99 0.03L41.99 0.03L41.99 0.03Q41.60 0.11 41.45 0.20L41.45 0.20L41.45 0.20Q41.33-0.25 40.92-0.73L40.92-0.73L40.92-0.73Q40.52-1.21 39.98-1.61L39.98-1.61L39.98-1.61Q39.43-2.01 38.82-2.29L38.82-2.29L38.82-2.29Q38.21-2.56 37.69-2.62ZM53.97 0L53.97 0L53.97 0Q54.03-0.24 54.08-0.59L54.08-0.59L54.08-0.59Q54.12-0.94 54.12-1.31L54.12-1.31L54.12-1.31Q54.12-1.65 54.07-1.98L54.07-1.98L54.07-1.98Q54.02-2.30 53.97-2.54L53.97-2.54L53.97-2.54Q54.46-2.54 54.80-2.61L54.80-2.61L54.80-2.61Q55.14-2.68 55.35-2.84L55.35-2.84L55.35-2.84Q55.57-3.00 55.66-3.28L55.66-3.28L55.66-3.28Q55.75-3.55 55.75-3.97L55.75-3.97L55.75-3.97Q55.75-4.79 55.71-5.38L55.71-5.38L55.71-5.38Q55.66-5.97 55.58-6.35L55.58-6.35L55.58-6.35Q55.50-6.73 55.37-6.93L55.37-6.93L55.37-6.93Q55.24-7.13 55.08-7.18L55.08-7.18L55.08-7.18Q55.25-7.24 55.38-7.39L55.38-7.39L55.38-7.39Q55.51-7.54 55.59-7.88L55.59-7.88L55.59-7.88Q55.67-8.22 55.71-8.79L55.71-8.79L55.71-8.79Q55.75-9.37 55.75-10.26L55.75-10.26L55.75-10.26Q55.75-10.65 55.64-10.90L55.64-10.90L55.64-10.90Q55.53-11.14 55.32-11.28L55.32-11.28L55.32-11.28Q55.12-11.43 54.82-11.47L54.82-11.47L54.82-11.47Q54.53-11.52 54.17-11.52L54.17-11.52L53.97-11.52L53.97-11.52Q54.02-11.76 54.07-12.07L54.07-12.07L54.07-12.07Q54.12-12.37 54.12-12.71L54.12-12.71L54.12-12.71Q54.12-13.08 54.08-13.45L54.08-13.45L54.08-13.45Q54.03-13.82 53.97-14.06L53.97-14.06L53.97-14.06Q54.16-13.99 54.56-13.94L54.56-13.94L54.56-13.94Q54.95-13.88 55.46-13.83L55.46-13.83L55.46-13.83Q55.98-13.78 56.56-13.75L56.56-13.75L56.56-13.75Q57.15-13.72 57.71-13.72L57.71-13.72L57.71-13.72Q58.26-13.72 58.84-13.75L58.84-13.75L58.84-13.75Q59.42-13.78 59.94-13.83L59.94-13.83L59.94-13.83Q60.45-13.88 60.85-13.94L60.85-13.94L60.85-13.94Q61.25-13.99 61.45-14.06L61.45-14.06L61.45-14.06Q61.39-13.82 61.34-13.45L61.34-13.45L61.34-13.45Q61.30-13.08 61.30-12.71L61.30-12.71L61.30-12.71Q61.30-12.37 61.35-12.07L61.35-12.07L61.35-12.07Q61.40-11.76 61.45-11.52L61.45-11.52L61.26-11.52L61.26-11.52Q60.93-11.52 60.64-11.47L60.64-11.47L60.64-11.47Q60.35-11.43 60.14-11.28L60.14-11.28L60.14-11.28Q59.92-11.14 59.79-10.90L59.79-10.90L59.79-10.90Q59.67-10.65 59.67-10.26L59.67-10.26L59.67-10.26Q59.67-9.59 59.69-9.12L59.69-9.12L59.69-9.12Q59.71-8.65 59.76-8.31L59.76-8.31L59.76-8.31Q60.31-8.20 61.03-8.15L61.03-8.15L61.03-8.15Q61.74-8.11 62.50-8.11L62.50-8.11L62.50-8.11Q63.26-8.11 63.97-8.16L63.97-8.16L63.97-8.16Q64.68-8.21 65.23-8.32L65.23-8.32L65.23-8.32Q65.28-8.66 65.30-9.14L65.30-9.14L65.30-9.14Q65.32-9.61 65.32-10.26L65.32-10.26L65.32-10.26Q65.32-10.65 65.21-10.90L65.21-10.90L65.21-10.90Q65.10-11.14 64.89-11.28L64.89-11.28L64.89-11.28Q64.69-11.43 64.39-11.47L64.39-11.47L64.39-11.47Q64.10-11.52 63.74-11.52L63.74-11.52L63.54-11.52L63.54-11.52Q63.59-11.76 63.64-12.07L63.64-12.07L63.64-12.07Q63.69-12.37 63.69-12.71L63.69-12.71L63.69-12.71Q63.69-13.08 63.65-13.45L63.65-13.45L63.65-13.45Q63.60-13.82 63.54-14.06L63.54-14.06L63.54-14.06Q63.73-13.99 64.13-13.94L64.13-13.94L64.13-13.94Q64.52-13.88 65.03-13.83L65.03-13.83L65.03-13.83Q65.55-13.78 66.13-13.75L66.13-13.75L66.13-13.75Q66.72-13.72 67.28-13.72L67.28-13.72L67.28-13.72Q67.83-13.72 68.41-13.75L68.41-13.75L68.41-13.75Q68.99-13.78 69.51-13.83L69.51-13.83L69.51-13.83Q70.02-13.88 70.42-13.94L70.42-13.94L70.42-13.94Q70.82-13.99 71.02-14.06L71.02-14.06L71.02-14.06Q70.96-13.82 70.91-13.45L70.91-13.45L70.91-13.45Q70.87-13.08 70.87-12.71L70.87-12.71L70.87-12.71Q70.87-12.37 70.92-12.07L70.92-12.07L70.92-12.07Q70.97-11.76 71.02-11.52L71.02-11.52L70.83-11.52L70.83-11.52Q70.50-11.52 70.21-11.47L70.21-11.47L70.21-11.47Q69.92-11.43 69.71-11.28L69.71-11.28L69.71-11.28Q69.49-11.14 69.37-10.90L69.37-10.90L69.37-10.90Q69.24-10.65 69.24-10.26L69.24-10.26L69.24-10.26Q69.24-9.37 69.28-8.79L69.28-8.79L69.28-8.79Q69.32-8.22 69.40-7.88L69.40-7.88L69.40-7.88Q69.48-7.54 69.61-7.39L69.61-7.39L69.61-7.39Q69.74-7.24 69.91-7.18L69.91-7.18L69.91-7.18Q69.75-7.13 69.62-6.93L69.62-6.93L69.62-6.93Q69.49-6.73 69.41-6.35L69.41-6.35L69.41-6.35Q69.33-5.97 69.28-5.38L69.28-5.38L69.28-5.38Q69.24-4.79 69.24-3.97L69.24-3.97L69.24-3.97Q69.24-3.55 69.35-3.28L69.35-3.28L69.35-3.28Q69.46-3.00 69.69-2.84L69.69-2.84L69.69-2.84Q69.91-2.68 70.24-2.61L70.24-2.61L70.24-2.61Q70.58-2.54 71.02-2.54L71.02-2.54L71.02-2.54Q70.97-2.30 70.92-1.98L70.92-1.98L70.92-1.98Q70.87-1.65 70.87-1.31L70.87-1.31L70.87-1.31Q70.87-0.94 70.91-0.59L70.91-0.59L70.91-0.59Q70.96-0.24 71.02 0L71.02 0L71.02 0Q70.73-0.06 70.30-0.10L70.30-0.10L70.30-0.10Q69.87-0.15 69.37-0.18L69.37-0.18L69.37-0.18Q68.86-0.21 68.32-0.23L68.32-0.23L68.32-0.23Q67.77-0.24 67.28-0.24L67.28-0.24L67.28-0.24Q66.78-0.24 66.24-0.23L66.24-0.23L66.24-0.23Q65.69-0.21 65.19-0.18L65.19-0.18L65.19-0.18Q64.68-0.15 64.25-0.10L64.25-0.10L64.25-0.10Q63.82-0.06 63.54 0L63.54 0L63.54 0Q63.60-0.24 63.65-0.59L63.65-0.59L63.65-0.59Q63.69-0.94 63.69-1.31L63.69-1.31L63.69-1.31Q63.69-1.65 63.64-1.98L63.64-1.98L63.64-1.98Q63.59-2.30 63.54-2.54L63.54-2.54L63.54-2.54Q64.03-2.54 64.37-2.61L64.37-2.61L64.37-2.61Q64.71-2.68 64.92-2.84L64.92-2.84L64.92-2.84Q65.14-3.00 65.23-3.28L65.23-3.28L65.23-3.28Q65.32-3.55 65.32-3.97L65.32-3.97L65.32-3.97Q65.32-5.14 65.23-5.86L65.23-5.86L65.23-5.86Q64.68-5.98 63.97-6.04L63.97-6.04L63.97-6.04Q63.27-6.10 62.50-6.10L62.50-6.10L62.50-6.10Q61.77-6.10 61.04-6.04L61.04-6.04L61.04-6.04Q60.32-5.99 59.76-5.88L59.76-5.88L59.76-5.88Q59.67-5.16 59.67-3.97L59.67-3.97L59.67-3.97Q59.67-3.55 59.78-3.28L59.78-3.28L59.78-3.28Q59.89-3.00 60.12-2.84L60.12-2.84L60.12-2.84Q60.34-2.68 60.67-2.61L60.67-2.61L60.67-2.61Q61.01-2.54 61.45-2.54L61.45-2.54L61.45-2.54Q61.40-2.30 61.35-1.98L61.35-1.98L61.35-1.98Q61.30-1.65 61.30-1.31L61.30-1.31L61.30-1.31Q61.30-0.94 61.34-0.59L61.34-0.59L61.34-0.59Q61.39-0.24 61.45 0L61.45 0L61.45 0Q61.16-0.06 60.73-0.10L60.73-0.10L60.73-0.10Q60.30-0.15 59.79-0.18L59.79-0.18L59.79-0.18Q59.29-0.21 58.75-0.23L58.75-0.23L58.75-0.23Q58.20-0.24 57.71-0.24L57.71-0.24L57.71-0.24Q57.21-0.24 56.67-0.23L56.67-0.23L56.67-0.23Q56.12-0.21 55.62-0.18L55.62-0.18L55.62-0.18Q55.11-0.15 54.68-0.10L54.68-0.10L54.68-0.10Q54.25-0.06 53.97 0ZM71.75 0L71.75 0L71.75 0Q71.81-0.24 71.84-0.60L71.84-0.60L71.84-0.60Q71.87-0.96 71.87-1.34L71.87-1.34L71.87-1.34Q71.87-1.69 71.84-2.00L71.84-2.00L71.84-2.00Q71.82-2.30 71.77-2.54L71.77-2.54L71.77-2.54Q72.27-2.56 72.62-2.72L72.62-2.72L72.62-2.72Q72.97-2.88 73.19-3.08L73.19-3.08L73.19-3.08Q73.43-3.44 73.67-3.89L73.67-3.89L73.67-3.89Q73.92-4.34 74.12-4.81L74.12-4.81L74.12-4.81Q74.32-5.28 74.44-5.76L74.44-5.76L74.44-5.76Q74.57-6.23 74.57-6.64L74.57-6.64L74.57-6.64Q74.57-6.81 74.52-6.97L74.52-6.97L74.52-6.97Q74.47-7.14 74.36-7.18L74.36-7.18L74.36-7.18Q74.65-7.26 74.94-7.61L74.94-7.61L74.94-7.61Q75.23-7.96 75.51-8.48L75.51-8.48L75.51-8.48Q75.78-8.99 76.02-9.63L76.02-9.63L76.02-9.63Q76.25-10.26 76.43-10.91L76.43-10.91L76.43-10.91Q76.60-11.56 76.70-12.18L76.70-12.18L76.70-12.18Q76.80-12.79 76.80-13.27L76.80-13.27L76.80-13.27Q76.80-13.44 76.78-13.59L76.78-13.59L76.78-13.59Q76.76-13.75 76.76-13.86L76.76-13.86L76.76-13.86Q76.76-13.91 76.76-13.95L76.76-13.95L76.76-13.95Q76.77-13.98 76.77-14.06L76.77-14.06L76.77-14.06Q76.99-13.97 77.33-13.91L77.33-13.91L77.33-13.91Q77.67-13.85 78.09-13.80L78.09-13.80L78.09-13.80Q78.51-13.76 78.98-13.74L78.98-13.74L78.98-13.74Q79.46-13.72 79.98-13.72L79.98-13.72L79.98-13.72Q80.43-13.72 80.90-13.74L80.90-13.74L80.90-13.74Q81.37-13.76 81.81-13.80L81.81-13.80L81.81-13.80Q82.25-13.85 82.63-13.91L82.63-13.91L82.63-13.91Q83.01-13.97 83.26-14.06L83.26-14.06L83.26-14.02L83.26-13.94L83.26-13.94Q83.26-13.83 83.24-13.67L83.24-13.67L83.24-13.67Q83.21-13.51 83.21-13.31L83.21-13.31L83.21-13.31Q83.21-12.86 83.30-12.26L83.30-12.26L83.30-12.26Q83.38-11.65 83.53-11.00L83.53-11.00L83.53-11.00Q83.67-10.35 83.88-9.71L83.88-9.71L83.88-9.71Q84.09-9.07 84.35-8.54L84.35-8.54L84.35-8.54Q84.60-8.01 84.89-7.64L84.89-7.64L84.89-7.64Q85.19-7.28 85.51-7.18L85.51-7.18L85.51-7.18Q85.37-7.13 85.32-6.99L85.32-6.99L85.32-6.99Q85.26-6.85 85.26-6.64L85.26-6.64L85.26-6.64Q85.26-6.23 85.39-5.76L85.39-5.76L85.39-5.76Q85.51-5.28 85.71-4.81L85.71-4.81L85.71-4.81Q85.91-4.34 86.15-3.90L86.15-3.90L86.15-3.90Q86.39-3.46 86.62-3.11L86.62-3.11L86.62-3.11Q86.77-3.02 86.97-2.92L86.97-2.92L86.97-2.92Q87.18-2.82 87.40-2.73L87.40-2.73L87.40-2.73Q87.63-2.65 87.85-2.59L87.85-2.59L87.85-2.59Q88.08-2.54 88.27-2.54L88.27-2.54L88.27-2.54Q88.22-2.30 88.20-2.00L88.20-2.00L88.20-2.00Q88.17-1.69 88.17-1.34L88.17-1.34L88.17-1.34Q88.17-0.96 88.20-0.60L88.20-0.60L88.20-0.60Q88.23-0.24 88.29 0L88.29 0L88.29 0Q87.94-0.04 87.48-0.08L87.48-0.08L87.48-0.08Q87.02-0.13 86.49-0.16L86.49-0.16L86.49-0.16Q85.97-0.20 85.40-0.22L85.40-0.22L85.40-0.22Q84.83-0.24 84.27-0.24L84.27-0.24L84.27-0.24Q83.23-0.24 82.30-0.18L82.30-0.18L82.30-0.18Q81.37-0.12 80.72 0L80.72 0L80.72 0Q80.75-0.17 80.78-0.52L80.78-0.52L80.78-0.52Q80.80-0.88 80.80-1.32L80.80-1.32L80.80-1.32Q80.80-1.50 80.79-1.69L80.79-1.69L80.79-1.69Q80.78-1.88 80.77-2.05L80.77-2.05L80.77-2.05Q80.76-2.22 80.75-2.35L80.75-2.35L80.75-2.35Q80.73-2.48 80.72-2.54L80.72-2.54L80.72-2.54Q80.90-2.54 81.09-2.55L81.09-2.55L81.09-2.55Q81.29-2.57 81.48-2.61L81.48-2.61L81.48-2.61Q81.67-2.65 81.85-2.71L81.85-2.71L81.85-2.71Q82.02-2.78 82.16-2.90L82.16-2.90L82.16-2.90Q82.14-3.29 82.03-3.57L82.03-3.57L82.03-3.57Q81.92-3.85 81.63-4.03L81.63-4.03L81.63-4.03Q81.33-4.22 80.80-4.31L80.80-4.31L80.80-4.31Q80.26-4.39 79.40-4.39L79.40-4.39L79.40-4.39Q78.63-4.39 78.12-4.34L78.12-4.34L78.12-4.34Q77.61-4.28 77.29-4.12L77.29-4.12L77.29-4.12Q76.97-3.96 76.82-3.67L76.82-3.67L76.82-3.67Q76.67-3.38 76.63-2.91L76.63-2.91L76.63-2.91Q76.78-2.79 76.98-2.72L76.98-2.72L76.98-2.72Q77.19-2.66 77.41-2.61L77.41-2.61L77.41-2.61Q77.63-2.57 77.85-2.55L77.85-2.55L77.85-2.55Q78.07-2.54 78.24-2.54L78.24-2.54L78.24-2.54Q78.22-2.48 78.21-2.35L78.21-2.35L78.21-2.35Q78.19-2.23 78.18-2.06L78.18-2.06L78.18-2.06Q78.17-1.88 78.17-1.69L78.17-1.69L78.17-1.69Q78.16-1.49 78.16-1.32L78.16-1.32L78.16-1.32Q78.16-0.88 78.19-0.52L78.19-0.52L78.19-0.52Q78.21-0.17 78.24 0L78.24 0L78.24 0Q77.50-0.14 76.74-0.19L76.74-0.19L76.74-0.19Q75.98-0.24 75.19-0.24L75.19-0.24L75.19-0.24Q74.27-0.24 73.40-0.19L73.40-0.19L73.40-0.19Q72.54-0.14 71.75 0ZM78.00-7.26L78.00-7.26L78.00-7.26Q78.00-6.97 78.06-6.79L78.06-6.79L78.06-6.79Q78.13-6.60 78.29-6.49L78.29-6.49L78.29-6.49Q78.45-6.39 78.73-6.34L78.73-6.34L78.73-6.34Q79.00-6.30 79.43-6.30L79.43-6.30L79.43-6.30Q79.86-6.30 80.14-6.34L80.14-6.34L80.14-6.34Q80.42-6.39 80.58-6.49L80.58-6.49L80.58-6.49Q80.74-6.60 80.81-6.79L80.81-6.79L80.81-6.79Q80.87-6.97 80.87-7.26L80.87-7.26L80.87-7.26Q80.87-7.60 80.69-8.10L80.69-8.10L80.69-8.10Q80.52-8.59 80.28-9.14L80.28-9.14L80.28-9.14Q80.05-9.69 79.80-10.23L79.80-10.23L79.80-10.23Q79.56-10.78 79.43-11.22L79.43-11.22L79.43-11.22Q79.29-10.78 79.04-10.23L79.04-10.23L79.04-10.23Q78.80-9.69 78.57-9.14L78.57-9.14L78.57-9.14Q78.34-8.59 78.17-8.10L78.17-8.10L78.17-8.10Q78.00-7.60 78.00-7.26ZM89.32 0L89.32 0L89.32 0Q89.38-0.24 89.42-0.59L89.42-0.59L89.42-0.59Q89.46-0.94 89.46-1.31L89.46-1.31L89.46-1.31Q89.46-1.65 89.41-1.98L89.41-1.98L89.41-1.98Q89.37-2.30 89.32-2.54L89.32-2.54L89.32-2.54Q89.76-2.54 90.09-2.61L90.09-2.61L90.09-2.61Q90.42-2.68 90.64-2.84L90.64-2.84L90.64-2.84Q90.87-3.00 90.98-3.28L90.98-3.28L90.98-3.28Q91.09-3.55 91.09-3.97L91.09-3.97L91.09-3.97Q91.09-4.86 91.05-5.46L91.05-5.46L91.05-5.46Q91.01-6.05 90.92-6.42L90.92-6.42L90.92-6.42Q90.84-6.79 90.71-6.96L90.71-6.96L90.71-6.96Q90.59-7.13 90.42-7.18L90.42-7.18L90.42-7.18Q90.60-7.24 90.72-7.39L90.72-7.39L90.72-7.39Q90.85-7.54 90.93-7.88L90.93-7.88L90.93-7.88Q91.02-8.22 91.05-8.79L91.05-8.79L91.05-8.79Q91.09-9.37 91.09-10.26L91.09-10.26L91.09-10.26Q91.09-10.65 90.97-10.90L90.97-10.90L90.97-10.90Q90.84-11.14 90.63-11.28L90.63-11.28L90.63-11.28Q90.41-11.43 90.12-11.47L90.12-11.47L90.12-11.47Q89.83-11.52 89.50-11.52L89.50-11.52L89.32-11.52L89.32-11.52Q89.37-11.76 89.41-12.07L89.41-12.07L89.41-12.07Q89.46-12.37 89.46-12.71L89.46-12.71L89.46-12.71Q89.46-13.08 89.42-13.45L89.42-13.45L89.42-13.45Q89.38-13.82 89.32-14.06L89.32-14.06L89.32-14.06Q89.70-13.93 90.40-13.82L90.40-13.82L90.40-13.82Q91.10-13.72 92.23-13.72L92.23-13.72L92.23-13.72Q92.96-13.72 93.65-13.80L93.65-13.80L93.65-13.80Q94.35-13.89 94.93-13.99L94.93-13.99L94.93-13.99Q94.93-13.53 95.13-12.93L95.13-12.93L95.13-12.93Q95.32-12.33 95.65-11.68L95.65-11.68L95.65-11.68Q95.99-11.03 96.41-10.35L96.41-10.35L96.41-10.35Q96.84-9.67 97.30-9.03L97.30-9.03L97.30-9.03Q97.76-8.40 98.23-7.84L98.23-7.84L98.23-7.84Q98.69-7.28 99.10-6.86L99.10-6.86L99.10-6.86Q99.50-6.45 99.80-6.20L99.80-6.20L99.80-6.20Q100.11-5.96 100.25-5.96L100.25-5.96L100.27-5.96L100.27-5.96Q100.28-5.96 100.30-5.95L100.30-5.95L100.30-5.95Q100.31-5.95 100.33-5.95L100.33-5.95L100.33-5.95Q100.41-6.24 100.45-6.69L100.45-6.69L100.45-6.69Q100.50-7.14 100.52-7.71L100.52-7.71L100.52-7.71Q100.55-8.27 100.56-8.92L100.56-8.92L100.56-8.92Q100.57-9.57 100.57-10.26L100.57-10.26L100.57-10.26Q100.57-10.65 100.44-10.90L100.44-10.90L100.44-10.90Q100.31-11.14 100.10-11.28L100.10-11.28L100.10-11.28Q99.88-11.43 99.59-11.47L99.59-11.47L99.59-11.47Q99.31-11.52 98.97-11.52L98.97-11.52L98.79-11.52L98.79-11.52Q98.84-11.76 98.89-12.07L98.89-12.07L98.89-12.07Q98.94-12.37 98.94-12.71L98.94-12.71L98.94-12.71Q98.94-13.08 98.89-13.45L98.89-13.45L98.89-13.45Q98.85-13.82 98.79-14.06L98.79-14.06L98.79-14.06Q98.97-13.99 99.38-13.94L99.38-13.94L99.38-13.94Q99.78-13.88 100.29-13.83L100.29-13.83L100.29-13.83Q100.81-13.78 101.39-13.75L101.39-13.75L101.39-13.75Q101.97-13.72 102.53-13.72L102.53-13.72L102.53-13.72Q103.10-13.72 103.68-13.75L103.68-13.75L103.68-13.75Q104.26-13.78 104.77-13.83L104.77-13.83L104.77-13.83Q105.28-13.88 105.67-13.94L105.67-13.94L105.67-13.94Q106.06-13.99 106.26-14.06L106.26-14.06L106.26-14.06Q106.20-13.82 106.16-13.45L106.16-13.45L106.16-13.45Q106.11-13.08 106.11-12.71L106.11-12.71L106.11-12.71Q106.11-12.37 106.16-12.07L106.16-12.07L106.16-12.07Q106.21-11.76 106.26-11.52L106.26-11.52L106.05-11.52L106.05-11.52Q105.70-11.52 105.41-11.47L105.41-11.47L105.41-11.47Q105.12-11.43 104.91-11.28L104.91-11.28L104.91-11.28Q104.71-11.14 104.59-10.90L104.59-10.90L104.59-10.90Q104.48-10.65 104.48-10.26L104.48-10.26L104.48-10.26Q104.48-9.37 104.54-8.78L104.54-8.78L104.54-8.78Q104.59-8.19 104.69-7.84L104.69-7.84L104.69-7.84Q104.79-7.49 104.94-7.34L104.94-7.34L104.94-7.34Q105.08-7.20 105.25-7.18L105.25-7.18L105.25-7.18Q105.09-7.09 104.96-6.90L104.96-6.90L104.96-6.90Q104.83-6.72 104.75-6.32L104.75-6.32L104.75-6.32Q104.67-5.92 104.62-5.25L104.62-5.25L104.62-5.25Q104.58-4.59 104.58-3.54L104.58-3.54L104.58-3.54Q104.58-2.84 104.64-2.26L104.64-2.26L104.64-2.26Q104.70-1.68 104.78-1.24L104.78-1.24L104.78-1.24Q104.86-0.79 104.96-0.48L104.96-0.48L104.96-0.48Q105.06-0.18 105.14 0L105.14 0L105.14 0Q104.89-0.08 104.59-0.13L104.59-0.13L104.59-0.13Q104.29-0.18 103.97-0.20L103.97-0.20L103.97-0.20Q103.66-0.22 103.37-0.23L103.37-0.23L103.37-0.23Q103.08-0.24 102.86-0.24L102.86-0.24L102.86-0.24Q102.63-0.24 102.33-0.23L102.33-0.23L102.33-0.23Q102.04-0.22 101.73-0.20L101.73-0.20L101.73-0.20Q101.43-0.18 101.11-0.13L101.11-0.13L101.11-0.13Q100.80-0.08 100.54 0L100.54 0L100.54 0Q100.54-0.49 100.26-1.16L100.26-1.16L100.26-1.16Q99.98-1.84 99.53-2.58L99.53-2.58L99.53-2.58Q99.07-3.32 98.50-4.08L98.50-4.08L98.50-4.08Q97.93-4.84 97.35-5.52L97.35-5.52L97.35-5.52Q96.77-6.20 96.23-6.74L96.23-6.74L96.23-6.74Q95.69-7.29 95.31-7.59L95.31-7.59L95.31-7.59Q95.13-7.15 95.07-6.21L95.07-6.21L95.07-6.21Q95.01-5.27 95.01-3.97L95.01-3.97L95.01-3.97Q95.01-3.55 95.10-3.28L95.10-3.28L95.10-3.28Q95.20-3.00 95.41-2.84L95.41-2.84L95.41-2.84Q95.63-2.68 95.96-2.61L95.96-2.61L95.96-2.61Q96.30-2.54 96.79-2.54L96.79-2.54L96.79-2.54Q96.74-2.30 96.69-1.98L96.69-1.98L96.69-1.98Q96.64-1.65 96.64-1.31L96.64-1.31L96.64-1.31Q96.64-0.94 96.68-0.59L96.68-0.59L96.68-0.59Q96.73-0.24 96.79 0L96.79 0L96.79 0Q96.50-0.06 96.07-0.10L96.07-0.10L96.07-0.10Q95.64-0.15 95.14-0.18L95.14-0.18L95.14-0.18Q94.63-0.21 94.09-0.23L94.09-0.23L94.09-0.23Q93.55-0.24 93.06-0.24L93.06-0.24L93.06-0.24Q92.56-0.24 92.02-0.23L92.02-0.23L92.02-0.23Q91.47-0.21 90.97-0.18L90.97-0.18L90.97-0.18Q90.46-0.15 90.02-0.10L90.02-0.10L90.02-0.10Q89.59-0.06 89.32 0ZM107.72 0L107.72 0L107.72 0Q107.78-0.24 107.83-0.59L107.83-0.59L107.83-0.59Q107.87-0.94 107.87-1.31L107.87-1.31L107.87-1.31Q107.87-1.65 107.82-1.98L107.82-1.98L107.82-1.98Q107.77-2.30 107.72-2.54L107.72-2.54L107.72-2.54Q108.16-2.54 108.54-2.61L108.54-2.61L108.54-2.61Q108.92-2.68 109.19-2.84L109.19-2.84L109.19-2.84Q109.47-3.00 109.63-3.28L109.63-3.28L109.63-3.28Q109.79-3.55 109.79-3.97L109.79-3.97L109.79-3.97Q109.79-4.79 109.75-5.38L109.75-5.38L109.75-5.38Q109.71-5.97 109.62-6.35L109.62-6.35L109.62-6.35Q109.54-6.73 109.41-6.93L109.41-6.93L109.41-6.93Q109.29-7.13 109.12-7.18L109.12-7.18L109.12-7.18Q109.30-7.24 109.42-7.39L109.42-7.39L109.42-7.39Q109.55-7.54 109.63-7.88L109.63-7.88L109.63-7.88Q109.72-8.22 109.76-8.79L109.76-8.79L109.76-8.79Q109.79-9.37 109.79-10.26L109.79-10.26L109.79-10.26Q109.79-10.65 109.61-10.90L109.61-10.90L109.61-10.90Q109.43-11.14 109.15-11.28L109.15-11.28L109.15-11.28Q108.86-11.43 108.51-11.47L108.51-11.47L108.51-11.47Q108.15-11.52 107.81-11.52L107.81-11.52L107.63-11.52L107.63-11.52Q107.68-11.76 107.72-12.07L107.72-12.07L107.72-12.07Q107.77-12.37 107.77-12.71L107.77-12.71L107.77-12.71Q107.77-13.08 107.73-13.45L107.73-13.45L107.73-13.45Q107.69-13.82 107.63-14.06L107.63-14.06L107.63-14.06Q107.81-13.99 108.28-13.93L108.28-13.93L108.28-13.93Q108.74-13.87 109.33-13.82L109.33-13.82L109.33-13.82Q109.91-13.78 110.56-13.75L110.56-13.75L110.56-13.75Q111.20-13.72 111.76-13.72L111.76-13.72L111.76-13.72Q112.32-13.72 112.92-13.75L112.92-13.75L112.92-13.75Q113.52-13.78 114.04-13.83L114.04-13.83L114.04-13.83Q114.57-13.88 114.98-13.94L114.98-13.94L114.98-13.94Q115.39-13.99 115.59-14.06L115.59-14.06L115.59-14.06Q115.53-13.82 115.48-13.45L115.48-13.45L115.48-13.45Q115.44-13.08 115.44-12.71L115.44-12.71L115.44-12.71Q115.44-12.37 115.49-12.07L115.49-12.07L115.49-12.07Q115.54-11.76 115.59-11.52L115.59-11.52L115.38-11.52L115.38-11.52Q115.02-11.52 114.72-11.47L114.72-11.47L114.72-11.47Q114.41-11.43 114.19-11.28L114.19-11.28L114.19-11.28Q113.96-11.14 113.84-10.90L113.84-10.90L113.84-10.90Q113.71-10.65 113.71-10.26L113.71-10.26L113.71-10.26Q113.71-9.37 113.75-8.79L113.75-8.79L113.75-8.79Q113.79-8.22 113.87-7.88L113.87-7.88L113.87-7.88Q113.96-7.54 114.08-7.39L114.08-7.39L114.08-7.39Q114.21-7.24 114.38-7.18L114.38-7.18L114.38-7.18Q114.22-7.13 114.09-6.93L114.09-6.93L114.09-6.93Q113.96-6.73 113.88-6.35L113.88-6.35L113.88-6.35Q113.80-5.97 113.75-5.38L113.75-5.38L113.75-5.38Q113.71-4.79 113.71-3.97L113.71-3.97L113.71-3.97Q113.71-3.55 113.85-3.28L113.85-3.28L113.85-3.28Q113.99-3.00 114.26-2.84L114.26-2.84L114.26-2.84Q114.52-2.68 114.91-2.61L114.91-2.61L114.91-2.61Q115.29-2.54 115.78-2.54L115.78-2.54L115.78-2.54Q115.73-2.30 115.68-1.98L115.68-1.98L115.68-1.98Q115.63-1.65 115.63-1.31L115.63-1.31L115.63-1.31Q115.63-0.94 115.68-0.59L115.68-0.59L115.68-0.59Q115.72-0.24 115.78 0L115.78 0L115.78 0Q115.50-0.06 115.02-0.10L115.02-0.10L115.02-0.10Q114.55-0.15 113.99-0.18L113.99-0.18L113.99-0.18Q113.43-0.21 112.84-0.23L112.84-0.23L112.84-0.23Q112.26-0.24 111.76-0.24L111.76-0.24L111.76-0.24Q111.26-0.24 110.67-0.23L110.67-0.23L110.67-0.23Q110.08-0.21 109.52-0.18L109.52-0.18L109.52-0.18Q108.96-0.15 108.48-0.10L108.48-0.10L108.48-0.10Q108.00-0.06 107.72 0ZM117.00 0L117.00 0L117.00 0Q117.06-0.22 117.08-0.56L117.08-0.56L117.08-0.56Q117.10-0.89 117.10-1.24L117.10-1.24L117.10-1.24Q117.10-1.62 117.08-1.95L117.08-1.95L117.08-1.95Q117.05-2.29 117.00-2.54L117.00-2.54L117.00-2.54Q117.35-2.54 117.78-2.73L117.78-2.73L117.78-2.73Q118.21-2.93 118.74-3.14L118.74-3.14L118.74-3.14Q119.28-3.43 119.83-3.88L119.83-3.88L119.83-3.88Q120.39-4.34 120.86-4.82L120.86-4.82L120.86-4.82Q121.33-5.31 121.65-5.77L121.65-5.77L121.65-5.77Q121.96-6.23 122.02-6.54L122.02-6.54L122.02-6.54Q122.02-6.66 121.85-6.85L121.85-6.85L121.85-6.85Q121.67-7.03 121.26-7.18L121.26-7.18L121.26-7.18Q121.53-7.29 121.68-7.44L121.68-7.44L121.68-7.44Q121.83-7.58 121.89-7.71L121.89-7.71L121.89-7.71Q121.51-8.10 121.21-8.48L121.21-8.48L121.21-8.48Q120.90-8.87 120.54-9.26L120.54-9.26L120.54-9.26Q120.19-9.66 119.73-10.07L119.73-10.07L119.73-10.07Q119.27-10.49 118.58-10.93L118.58-10.93L118.58-10.93Q118.44-11.02 118.25-11.12L118.25-11.12L118.25-11.12Q118.06-11.22 117.85-11.31L117.85-11.31L117.85-11.31Q117.64-11.40 117.42-11.46L117.42-11.46L117.42-11.46Q117.20-11.52 117.00-11.52L117.00-11.52L117.00-11.52Q117.05-11.76 117.08-12.07L117.08-12.07L117.08-12.07Q117.10-12.37 117.10-12.72L117.10-12.72L117.10-12.72Q117.10-13.11 117.08-13.46L117.08-13.46L117.08-13.46Q117.05-13.82 117.00-14.06L117.00-14.06L117.00-14.06Q117.71-13.94 118.69-13.83L118.69-13.83L118.69-13.83Q119.67-13.72 120.81-13.72L120.81-13.72L120.81-13.72Q121.42-13.72 122.00-13.74L122.00-13.74L122.00-13.74Q122.59-13.76 123.12-13.80L123.12-13.80L123.12-13.80Q123.65-13.85 124.12-13.91L124.12-13.91L124.12-13.91Q124.58-13.97 124.94-14.06L124.94-14.06L124.94-14.06Q124.91-13.90 124.89-13.54L124.89-13.54L124.89-13.54Q124.86-13.18 124.86-12.74L124.86-12.74L124.86-12.74Q124.86-12.57 124.87-12.37L124.87-12.37L124.87-12.37Q124.87-12.18 124.88-12.01L124.88-12.01L124.88-12.01Q124.89-11.84 124.91-11.71L124.91-11.71L124.91-11.71Q124.92-11.58 124.94-11.52L124.94-11.52L124.94-11.52Q124.72-11.52 124.53-11.50L124.53-11.50L124.53-11.50Q124.34-11.48 124.19-11.41L124.19-11.41L124.19-11.41Q124.04-11.33 123.96-11.18L123.96-11.18L123.96-11.18Q123.88-11.03 123.88-10.75L123.88-10.75L123.88-10.75Q123.88-10.56 124.06-10.31L124.06-10.31L124.06-10.31Q124.24-10.06 124.52-9.78L124.52-9.78L124.52-9.78Q124.79-9.49 125.13-9.17L125.13-9.17L125.13-9.17Q125.46-8.86 125.75-8.54L125.75-8.54L125.75-8.54Q126.02-8.84 126.31-9.15L126.31-9.15L126.31-9.15Q126.61-9.46 126.87-9.77L126.87-9.77L126.87-9.77Q127.13-10.07 127.30-10.33L127.30-10.33L127.30-10.33Q127.47-10.60 127.47-10.80L127.47-10.80L127.47-10.80Q127.47-11.07 127.36-11.22L127.36-11.22L127.36-11.22Q127.25-11.37 127.07-11.44L127.07-11.44L127.07-11.44Q126.89-11.50 126.67-11.51L126.67-11.51L126.67-11.51Q126.46-11.52 126.25-11.52L126.25-11.52L126.25-11.52Q126.26-11.58 126.27-11.71L126.27-11.71L126.27-11.71Q126.29-11.85 126.30-12.01L126.30-12.01L126.30-12.01Q126.31-12.18 126.32-12.37L126.32-12.37L126.32-12.37Q126.33-12.56 126.33-12.74L126.33-12.74L126.33-12.74Q126.33-13.18 126.30-13.54L126.30-13.54L126.30-13.54Q126.28-13.90 126.25-14.06L126.25-14.06L126.25-14.06Q127.04-13.88 127.85-13.80L127.85-13.80L127.85-13.80Q128.65-13.72 129.50-13.72L129.50-13.72L129.50-13.72Q130.40-13.72 131.17-13.80L131.17-13.80L131.17-13.80Q131.93-13.88 132.72-14.06L132.72-14.06L132.72-14.06Q132.68-13.82 132.65-13.46L132.65-13.46L132.65-13.46Q132.63-13.11 132.63-12.72L132.63-12.72L132.63-12.72Q132.63-12.37 132.65-12.07L132.65-12.07L132.65-12.07Q132.68-11.76 132.72-11.52L132.72-11.52L132.72-11.52Q132.38-11.52 132.01-11.30L132.01-11.30L132.01-11.30Q131.64-11.08 131.18-10.82L131.18-10.82L131.18-10.82Q130.63-10.51 130.08-10.09L130.08-10.09L130.08-10.09Q129.53-9.67 129.07-9.23L129.07-9.23L129.07-9.23Q128.61-8.80 128.29-8.39L128.29-8.39L128.29-8.39Q127.97-7.99 127.90-7.71L127.90-7.71L127.90-7.71Q127.97-7.55 128.19-7.38L128.19-7.38L128.19-7.38Q128.41-7.22 128.70-7.18L128.70-7.18L128.70-7.18Q128.41-7.02 128.22-6.85L128.22-6.85L128.22-6.85Q128.03-6.68 128.03-6.54L128.03-6.54L128.03-6.54Q128.41-6.12 128.72-5.69L128.72-5.69L128.72-5.69Q129.02-5.26 129.38-4.82L129.38-4.82L129.38-4.82Q129.73-4.38 130.19-3.94L130.19-3.94L130.19-3.94Q130.65-3.49 131.34-3.04L131.34-3.04L131.34-3.04Q131.47-2.97 131.67-2.88L131.67-2.88L131.67-2.88Q131.86-2.79 132.07-2.72L132.07-2.72L132.07-2.72Q132.29-2.65 132.50-2.59L132.50-2.59L132.50-2.59Q132.72-2.54 132.92-2.54L132.92-2.54L132.92-2.54Q132.84-2.29 132.83-1.96L132.83-1.96L132.83-1.96Q132.82-1.63 132.82-1.24L132.82-1.24L132.82-1.24Q132.82-0.89 132.85-0.56L132.85-0.56L132.85-0.56Q132.87-0.22 132.92 0L132.92 0L132.92 0Q132.22-0.09 131.24-0.17L131.24-0.17L131.24-0.17Q130.25-0.24 129.11-0.24L129.11-0.24L129.11-0.24Q127.89-0.24 126.80-0.18L126.80-0.18L126.80-0.18Q125.71-0.12 124.98 0L124.98 0L124.98 0Q125.01-0.15 125.03-0.48L125.03-0.48L125.03-0.48Q125.06-0.81 125.06-1.22L125.06-1.22L125.06-1.22Q125.06-1.42 125.05-1.62L125.05-1.62L125.05-1.62Q125.04-1.83 125.03-2.01L125.03-2.01L125.03-2.01Q125.02-2.20 125.00-2.34L125.00-2.34L125.00-2.34Q124.99-2.48 124.98-2.54L124.98-2.54L124.98-2.54Q125.20-2.54 125.39-2.55L125.39-2.55L125.39-2.55Q125.59-2.57 125.73-2.64L125.73-2.64L125.73-2.64Q125.88-2.71 125.96-2.84L125.96-2.84L125.96-2.84Q126.04-2.98 126.04-3.21L126.04-3.21L126.04-3.21Q126.04-3.40 125.87-3.64L125.87-3.64L125.87-3.64Q125.69-3.88 125.43-4.16L125.43-4.16L125.43-4.16Q125.17-4.43 124.85-4.74L124.85-4.74L124.85-4.74Q124.53-5.04 124.24-5.35L124.24-5.35L124.24-5.35Q123.96-5.06 123.64-4.76L123.64-4.76L123.64-4.76Q123.33-4.45 123.07-4.16L123.07-4.16L123.07-4.16Q122.80-3.87 122.63-3.61L122.63-3.61L122.63-3.61Q122.45-3.35 122.45-3.16L122.45-3.16L122.45-3.16Q122.45-2.93 122.56-2.80L122.56-2.80L122.56-2.80Q122.68-2.68 122.85-2.62L122.85-2.62L122.85-2.62Q123.03-2.56 123.25-2.55L123.25-2.55L123.25-2.55Q123.47-2.54 123.67-2.54L123.67-2.54L123.67-2.54Q123.65-2.48 123.64-2.34L123.64-2.34L123.64-2.34Q123.62-2.20 123.61-2.01L123.61-2.01L123.61-2.01Q123.60-1.83 123.60-1.62L123.60-1.62L123.60-1.62Q123.59-1.41 123.59-1.22L123.59-1.22L123.59-1.22Q123.59-0.81 123.62-0.48L123.62-0.48L123.62-0.48Q123.64-0.15 123.67 0L123.67 0L123.67 0Q122.84-0.14 121.98-0.19L121.98-0.19L121.98-0.19Q121.11-0.24 120.22-0.24L120.22-0.24L120.22-0.24Q119.33-0.24 118.56-0.19L118.56-0.19L118.56-0.19Q117.79-0.13 117.00 0Z" fill="url(#editing-glowing-gradient)"></path></g></g><style>text {
  font-size: 64px;
  font-family: Arial Black;
  dominant-baseline: central;
  text-anchor: middle;
}</style></svg>